<svg xmlns="http://www.w3.org/2000/svg" viewBox="0 0 2625 3000" width="2625" height="3000"><g transform="translate(1053.75 217.5) rotate(0.0 710.625 590.625) scale(3.7408797548983483 3.738677149205264)"><svg width="379.924" height="315.954" viewBox="0 0 379.924 315.954"><linearGradient id="a" gradientUnits="userSpaceOnUse" x1="229.86" x2="110.516" y1="312.983" y2="194.048"><stop offset=".16" stop-color="#2d5caa"/><stop offset=".709" stop-color="#153b64"/></linearGradient><linearGradient id="b" gradientUnits="userSpaceOnUse" x1="407.405" x2="-317.225" y1="-21.261" y2="186.506"><stop offset=".316" stop-color="#2d5caa"/><stop offset=".593" stop-color="#153b64"/></linearGradient><path d="M256.76 315.954H141.88c0-6.26 5.08-11.34 11.34-11.34h10.7c5.9 0 10.68-4.78 10.68-10.68v-77.4h49.44v77.4c0 5.9 4.78 10.68 10.68 10.68h10.69a11.332 11.332 0 0 1 11.35 11.34z" fill="#2d5caa"/><path d="M224.04 216.534v23.58c0 13.01-15.3 16.01-21.77 27.75-6.15 11.15 2 20.25-7.93 30.48-7.95 8.2-20.13 10.51-22.95 17.61h-29.51c0-6.26 5.08-11.34 11.34-11.34h10.7c5.9 0 10.68-4.78 10.68-10.68v-77.4z" fill="url(#a)"/><rect fill="#2d5caa" height="205.02" rx="8" width="327.599" x="35.52" y="34.518"/><path d="M0 0h209.006v137.028H0z" fill="#153b64"/><path d="M158.222 24.517v8h36.119v24h-60.028v8h23.909v8H51.419v-8h19.753v-16H51.419v-16h12.5v-8h-12.5v-8h6.97v-8h99.833v8h36.119v8zm-87.05 55.997v8h39.898v-8zm63.138 8h60.03v-8h-60.03zm41.12 8.003H71.172v7.997h-.002v8h51.96v-7.997h22.57v7.997h37.66v-8h-7.93zm-104.26 24h25.935v-8H71.17zm36 0h9.993v-8h-9.993zm34.71 8h33.55v-8h-33.55zm-18.579 0h12.129v-8h-12.129zm-110.161-112h27.465v-8H13.14zm0 32h27.465v-8H13.14zm0 40h27.465v-8H13.14z" fill="url(#b)"/><path d="M162.575 151.576h217.349v72.539H162.575zM263.306 20h68.954v71.818h-68.954z" fill="#9fdeed"/><path d="M229.905 101.818h35.21v35.21h-35.21z" fill="#3aafd9"/><rect fill="#3aafd9" height="28.81" rx="14.405" width="78.886" x="57.994" y="195.305"/><path d="M172.887 161.386h53.018v53.018h-53.018z" fill="#83d0ff"/><path d="M352.26 71.818h-68.954V0h52.468l16.486 16.486z" fill="#3aafd9"/><path d="M335.774 16.486h16.486L335.774 0z" fill="#153b64"/><path d="M225.905 215.405a.997.997 0 0 1-.707-.293l-53.018-53.019a.999.999 0 1 1 1.414-1.414l53.018 53.019a.999.999 0 0 1-.707 1.707z" fill="#9fdeed"/><path d="M172.887 215.405a.999.999 0 0 1-.707-1.707l53.018-53.019a.999.999 0 1 1 1.414 1.414l-53.018 53.019a.997.997 0 0 1-.707.293z" fill="#9fdeed"/><g fill="#83d0ff"><path d="M239.985 161.386h24.395v8h-24.395zm37.978 0h73.044v8h-73.044zm-37.978 15h24.395v8h-24.395zm37.978 0h93.848v8h-93.848zm-37.978 16h24.395v8h-24.395zm37.978 0h46.924v8h-46.924z"/></g><path d="M257.421 130.335a.997.997 0 0 1-.707-.293l-19.823-19.823a.999.999 0 1 1 1.414-1.414l19.823 19.823a.999.999 0 0 1-.707 1.707z" fill="#9fdeed"/><path d="M237.599 130.335a.999.999 0 0 1-.707-1.707l19.823-19.823a.999.999 0 1 1 1.414 1.414l-19.823 19.823a.997.997 0 0 1-.707.293z" fill="#9fdeed"/><circle cx="73.27" cy="209.71" fill="#9fdeed" r="11.381"/><rect fill="#83d0ff" height="28.81" rx="14.405" width="78.886" x="57.994" y="151.576"/><circle cx="121.605" cy="165.981" fill="#3aafd9" r="11.381"/><path d="M332.162 47.923a.999.999 0 0 1-.578-1.817l11.335-8.005-11.335-8.005a1.001 1.001 0 0 1 1.154-1.634l12.492 8.822a1.002 1.002 0 0 1 0 1.634l-12.492 8.822a.994.994 0 0 1-.576.183zm-29.291 0c-.199 0-.401-.06-.576-.183l-12.492-8.822a1.002 1.002 0 0 1 0-1.634l12.492-8.822a1.001 1.001 0 0 1 1.154 1.634l-11.335 8.005 11.335 8.005a1.001 1.001 0 0 1-.578 1.817zm8.916 7.846a1 1 0 0 1-.934-1.357l11.458-30.014a1.001 1.001 0 0 1 1.869.713l-11.458 30.014a1 1 0 0 1-.934.644z" fill="#9fdeed"/></svg></g><g transform="translate(825.0 1398.75) rotate(0.0 847.5 757.5) scale(3.748324863667122 3.740777686693202)"><svg width="452.202" height="404.996" viewBox="0 0 452.202 404.996"><g fill="#9fdeed"><path d="M443.648 16.189h8.554v388.807h-8.554zM16.189 0h419.823c8.935 0 16.19 7.254 16.19 16.189H0C0 7.254 7.254 0 16.189 0zM0 16.189h8.554v388.807H0z"/></g></svg></g><g transform="translate(1533.75 1301.25) rotate(0.0 112.5 48.75) scale(3.5321266542126497 3.562815172111379)"><svg width="63.701" height="27.366" viewBox="0 0 63.701 27.366"><path d="M50.347 27.366c7.269 0 20.364-2.197 8.718-14.717C44.341-3.18 23.221-1.478 12.526 3.45-1.908 10.101-4.031 27.366 7.007 27.366h43.34z" fill="#8c0046"/></svg></g><g transform="translate(300.0 138.75) rotate(0.0 723.75 1320.0) scale(3.7482035811851833 3.7526172373061324)"><svg width="386.185" height="703.509" viewBox="0 0 386.185 703.509"><linearGradient id="c" gradientUnits="userSpaceOnUse" x1="61.115" x2="8.535" y1="267.123" y2="272.184"><stop offset=".025" stop-color="#2d5caa"/><stop offset=".447" stop-color="#2d5caa"/><stop offset=".899" stop-color="#7ec9fa"/><stop offset=".925" stop-color="#83d0ff"/></linearGradient><linearGradient id="d" gradientUnits="userSpaceOnUse" x1="136.204" x2="169.537" y1="400.564" y2="508.764"><stop offset=".366" stop-color="#8c0046"/><stop offset=".836" stop-color="#f90055"/><stop offset=".858" stop-color="#ff0056"/></linearGradient><linearGradient id="e" gradientUnits="userSpaceOnUse" x1="217.973" x2="120.55" y1="259.352" y2="299.062"><stop offset=".231" stop-color="#2d5caa"/><stop offset=".925" stop-color="#83d0ff"/></linearGradient><linearGradient id="f" gradientUnits="userSpaceOnUse" x1="358.169" x2="248.976" y1="423.832" y2="475.027"><stop offset=".021" stop-color="#8c0046"/><stop offset=".857" stop-color="#f90055"/><stop offset=".896" stop-color="#ff0056"/></linearGradient><linearGradient id="g" gradientTransform="matrix(.99404874 .10893627 -.10893627 .99404874 533.043 -683.388)" gradientUnits="userSpaceOnUse" x1="-294.725" x2="-302.464" y1="785.688" y2="794.911"><stop offset=".325" stop-color="#fc5d78"/><stop offset=".995" stop-color="#f5837f"/></linearGradient><linearGradient id="h" gradientTransform="matrix(.99404874 .10893627 -.10893627 .99404874 533.043 -683.388)" gradientUnits="userSpaceOnUse" x1="-304.821" x2="-354.638" y1="804.025" y2="858.783"><stop offset="0" stop-color="#fc5d78"/><stop offset=".94" stop-color="#f5837f"/></linearGradient><path d="M140.988 27.299c9.465 1.037 22.959 26.964 10.623 27.988l-7.87-8.669z" fill="#153b64"/><g fill="#f5837f"><path d="M149.296 65.602c-2.62 23.908-23.917 39.266-47.824 36.646-23.908-2.62-41.165-24.125-38.545-48.032 2.62-23.908 24.125-41.165 48.032-38.545 23.908 2.62 40.957 26.024 38.337 49.931z"/><path d="M120.484 120.776c-5.306.924-10.204 26.215-11.47 31.63-10.74 1.26-42.02 3.14-49.42-12.37 9.97-13.37 18.82-35.84 14.63-53.98 28.737.501 46.794 12.264 46.26 34.72z"/><path d="M154.01 86.264c-7.856-12.898-6.253-13.299-3.159-19.535.038-.067.109-.216.137-.28.661-1.349 1.344-2.87 1.531-3.955.512-2.923-2.871-19.753-10.566-28.361-2.359-3.9-5.04-6.01-7.805-5.679-8.826 1.012-24.6 21.058-23.858 46.026.239 7.906.913 15.682 2.421 22.539 4.526 20.579 12.068 24.63 14.237 24.862 13.888 1.479 18.851-20.099 18.994-28.798 3.682-.368 9.373-4.671 8.068-6.82z"/></g><path d="M145.712 39.492c.5-2.275-.699-7.991-3.491-9.843 15.731-5.889.685-18.66-20.891-18.123.959-10.943-36.707-24.668-50.202 14.641-10.715-16.036-39.936 47.39 6.433 72.581C97.538 109.601 116.835 76.8 114.89 70.3c6.686-17.57 30.823-30.809 30.823-30.809z" fill="#153b64"/><path d="M125.558 226.049s26.328 84.497 29.803 95.853c5.272 17.228 28.129 17.232 36.853 4.647 9.177-13.238-1.405-49.308-5.038-71.109-3.44-20.64-13.225-74.465-40.699-93.405-13.752-9.48-36.096 15.487-20.918 64.014z" fill="#f5837f"/><path d="M161.741 298.143c16.9-8.792 43.338-3.073 70.637 1.648 27.323 4.724 77.49 12.877 90.277 14.52 13.072 1.68 10.902 21.057-8.41 21.057s-114.835 2.58-138.285 2.58-29.89-31.652-14.219-39.805z" fill="#f5837f"/><path d="M372.494 316.476c-6.75 2.89-19.55 7.51-25.9 4.16-1.28-.68-2.33-1.76-3.18-3.08-3.49-5.44-3.4-14.84-.97-15.51 4.5-1.23 16.355-4.321 20.241-4.511 3.688-.18 5.595 3.118 5.199 4.961 2.498-.033 4.83 2.67 4.06 5.76 1.35.33 2.26 1.22 2.75 2.32 1.02 2.25-.11 5-2.2 5.9z" fill="#fc5d78"/><path d="M370.008 302.647c7.642 5.395 18.956 18.678 15.555 20.406-4.901 2.49-14.717-6.185-19.723-11.738-4.898-5.433 1.164-10.788 4.168-8.668z" fill="#fc5d78"/><path d="M372.494 316.476c-6.75 2.89-19.55 7.51-25.9 4.16-1.28-.68-2.33-1.76-3.18-3.08l11.149-6.665s13.388-2.055 17.381-2.635c1.35.33 2.26 1.22 2.75 2.32 1.02 2.25-.11 5-2.2 5.9z" fill="#f5837f"/><path d="M345.336 293.669s9.33.238 12.439.34c2.747.091 4.344 1.811 4.911 3.525l-13.512 4.558-7.727-3.686 3.89-4.737z" fill="#fc5d78"/><path d="M353.981 322.422c-9.892 9.406-35.549 12.639-35.549 12.639-15.159.879-13.587-13.389-9.232-17.617 11.99-11.641 30.581-26.173 37.324-23.497 1.662.913 2.442 2.832 1.888 4.441 2.724 0 4.489 2.672 3.785 5.777 2.771.902 3.832 4.202 2.367 6.725 3.703.624 5.039 6.186-.582 11.531zm20.465-12.561c4.37 8.271 8.44 25.238 4.626 25.238-5.497 0-10.319-12.18-12.267-19.398-1.906-7.062 5.924-9.091 7.642-5.84z" fill="#f5837f"/><path d="m231.112 337.255-17.628.691H31.544c-11.14 0-35.59.39-30.97-36.79 4.74-38.14 10.499-107.578 26.955-130.348 15.674-21.688 26.066-28.391 34.586-35.318 8.598-6.991 28.438-1.277 44.713 5.21 25.809 10.287 37.014 18.92 47.065 24.619 18.877 10.705 22.712 29.787 29.772 56.176 4.68 17.48 5.51 21.95 4.36 22.77.51 3.68 5.15 29.54 5.56 32.46 7.46 3.12 19.75 9.68 17.67 14.3l27.73 5.96s8.888 28.409-7.872 40.269z" fill="#83d0ff"/><path d="M19.12 203.164c-.237 17.713-5.667 36.272-5.264 46.348s5.176 15.19 5.151 23.654-7.912 34.897-.232 44.769c8.289 10.655 12.716 12.338 13.033 20.011C41.979 287.365 19.12 203.164 19.12 203.164z" fill="url(#c)"/><path d="m162.32 630.441-43.679-188.233c-13.685-55.183 56.572-36.098 62.895 9.769 10.397 75.412 1.042 67.282 11.351 173.891 2.4 24.824-22.881 35.564-30.566 4.573zm171.724-160.876c-.85 1.74-1.78 3.52-2.77 5.34-26.21 48.08-58.78 108.74-76.34 141.37-21.77 40.46-65.81 40.78-47.05 12.42 25.55-38.63 29.91-104.58 58.04-181.84 12.65-34.73 92.2-39.85 68.12 22.71z" fill="#f5837f"/><path d="M150.718 647.135s5.051-17.83 8.354-25.881c5.066-12.347 32.429-10.228 37.918 1.105 6.357 13.127 11.318 24.776 11.318 24.776l-31.988 7.253z" fill="#2d5caa"/><path d="M206.988 661.736c-.202 1.72-1.13 3.18-2.67 3.18h-48.98c-1.47 0-3.518-1.22-3.66-3-.229-2.861-.96-14.78-.96-14.78h57.59s-.941 11.383-1.32 14.6z" fill="#3aafd9"/><path d="M200.345 597.112s-27.84 7.25-49.3 1.22c-3.67-16.07-20.67-89.17-31.03-133.68v-.01c-3.99-17.15-6.99-30.05-7.87-33.81l-.26-1.12s21.458-22.081 67.73-11.1c.54 3.76 1.05 7.5 1.54 11.23 1.14 8.62 2.18 17.21 3.17 25.94 1.4 12.21 2.71 24.7 4.09 37.9.01.12.03.24.04.36 3.06 29.24 6.47 62 11.89 103.07z" fill="#ff0056"/><path d="M188.415 493.682c-1.19-10.36-9.2-26.07-25.52-23.6-16.01 2.42-18.48-6.49-41.99-5.38-.31-.02-.6-.04-.89-.05v-.01c-3.99-17.15-6.99-30.05-7.87-33.81 19.415-17.474 43.024-14.907 69.01-.99 1.14 8.62 2.18 17.21 3.17 25.94 1.4 12.21 2.71 24.7 4.09 37.9z" fill="url(#d)"/><path d="M336.044 469.565c-11.99 31.74-46.8 116.69-46.8 116.69-26.9 16.51-68.21 16.11-68.21 16.11 15.52-42.46 22.4-81.73 31.79-117.26 2.7-10.24 5.61-20.17 9-29.77-22.055 1.448-63.669-.739-84.89-4.48-31.76 9.479-45.935 10.662-70.92 9.8-22.56-1.62-38.449-7.896-47.31-13.7-29.569-19.369-28.808-55.66-28.77-109.16 0 0 119.846 14.243 158.58 21.2 45.018 8.086 122.45 27.12 136.41 37.49 11.73 8.72 28.74 26.41 11.12 73.08z" fill="#ff0056"/><path d="M165.678 353.875c-28.734 21.162-100.306 40.605-142.425 29.638.871-25.404 2.047-44.584 2.047-64.728 0-17.228-10.247-86.79-5.607-121.4 14.722-41.216 92.307-54.566 124.818-12.71l21.166 169.2z" fill="#83d0ff"/><path d="M260.134 606.611c-8.905 15.866-10.136 20.391 1.071 32.708 8.126 8.931 40.768 38.416 58.102 53.952 2.592 2.323.215 6.541-3.118 5.536L189.941 660.74s13.558-27.348 20.034-35.363c6.475-8.015 59.504-35.414 50.16-18.767z" fill="#f5837f"/><path d="M146.04 326.189c-5.753-7.99-2.354-30.646-4.4-42.229-1.354-7.665-8.067-9.842-10.267-22.799-2.571-15.141 2.073-9.887-5.658-31.186 0 0 22.04 61.06 31 83.76 9.56 24.21 17.497 24.212 32.77 24.21-37.348 0-37.957-4.137-43.444-11.756z" fill="url(#e)"/><path d="M311.814 443.985v.01c-8.798 15.376-23.394 14.796-33.51 21.92-8.981 6.325-13.29 19.55-25.48 19.19 2.7-10.24 5.61-20.17 9-29.77 16.91-1.1 34.06-4.43 49.99-11.35z" fill="url(#f)"/><path d="m306.961 702.367-112.653-34.678a7.002 7.002 0 0 1-4.937-6.926l.455-13.509.003-.01.01.003c6.584-12.631 14.846-24.796 20.771-31.728l.018-.02a1.946 1.946 0 0 1 2.685-.235l11.003 8.853a10.736 10.736 0 0 0 10.116 1.823l18.912-6.288c3.4-1.13 7.138-.527 10.022 1.598 19.524 14.384 30.875 28.422 47.797 39.549 11.215 7.374 30.244 14.77 27.264 23.236l-1.643 4.097c-4.725 11.78-17.692 17.97-29.823 14.236z" fill="#2d5caa"/><path d="M307.054 702.396 194.309 667.69a7.002 7.002 0 0 1-4.937-6.926l.455-13.509.003-.01.01.003 111.857 34.482a69.995 69.995 0 0 0 24.582 2.994l12.149-.689.064.166c.103.267-.052 1.012-.389 2.084-4.081 12.989-18.037 20.117-31.049 16.111z" fill="#3aafd9"/><path d="M149.832 70.071c-.536 2.348-.867 5.381-.587 7.383-.183-.347-2.178-5.381-5.733-8.281 2.132-2.327 5.786-5.135 8.819-5.907-.563 1.876-2.057 4.866-2.499 6.804z" fill="url(#g)"/><path d="M132.61 121.111c-3.807 1.629-6.3.877-9.07.109v.01c-4.714-1.591-5.954 2.051-7.728 5.993-1.146 2.545-2.858 8.672-2.858 8.672-.368-8.205-3.519-10.273-2.69-16.763.68-5.324 3.684-9.826 3.436-17.924-.244-7.988-4.427-13.643-1.425-21.542.706-1.858 5.461 1.867 6.473 7.779-4.086 12.67 4.687 34.952 13.861 33.667z" fill="url(#h)"/><path d="M106.833 65.488c.111-5.106 2.745-8.093 6.703-7.999 3.71.088 7.007 3.769 7.086 7.207.155 6.761-.46 13.248-1.873 22.748-6.012-7.471-12.12-12.62-11.916-21.955z" fill="#f5837f"/></svg></g><g transform="translate(112.5 371.25) rotate(0.0 710.625 1271.25) scale(3.7324897972046704 3.7443503386483226)"><svg width="380.778" height="679.023" viewBox="0 0 380.778 679.023"><linearGradient id="i" gradientUnits="userSpaceOnUse" x1="218.797" x2="157.584" y1="378.321" y2="475.499"><stop offset=".149" stop-color="#3aafd9"/><stop offset=".818" stop-color="#9fdeed"/></linearGradient><path d="M208.78 388.833v98.65c0 4.45-4.7 8.06-10.5 8.06s-10.5-3.61-10.5-8.06v-98.65c0-4.45 4.7-8.06 10.5-8.06s10.5 3.61 10.5 8.06z" fill="#9fdeed"/><path d="M208.78 394.283h-21v65.08c9.05-8.22 12.837-29.42 21-40.13z" fill="url(#i)"/><g fill="#9fdeed"><path d="M181.713 470.362h34.801v126.481h-34.801z"/><path d="m201.173 591.154 159.934 48.884a4.237 4.237 0 0 1 2.813 5.289c-.65 2.127-2.837 3.366-4.972 2.896l-163.236-36.368c-5.775-1.287-9.413-7.011-8.127-12.786 1.287-5.775 7.011-9.413 12.786-8.127.264.059.547.135.802.211z"/><path d="M356.177 644.532h7.93v13.819h-7.93z"/><circle cx="367.106" cy="665.351" r="13.672"/><path d="m210.212 601.374-7.789 43.056a4.236 4.236 0 0 1-4.428 4.034c-2.221-.104-3.963-1.916-4.037-4.101l-5.155-43.158c-.182-5.914 4.464-10.855 10.377-11.038 5.914-.182 10.855 4.464 11.038 10.377.008.27.005.563-.007.829z"/><path d="M197.054 591.154 37.12 640.038a4.237 4.237 0 0 0-2.813 5.289c.65 2.127 2.837 3.366 4.972 2.896l163.236-36.368c5.775-1.287 9.413-7.011 8.127-12.786-1.287-5.775-7.011-9.413-12.786-8.127-.264.059-.547.135-.802.211z"/><path d="M42.051 658.351h-7.93v-13.819h7.93z"/><circle cx="31.122" cy="665.351" r="13.672"/><path d="M194.149 644.532h7.93v13.819h-7.93z"/><circle cx="198.114" cy="665.351" r="13.672"/><path d="M307.26 295.973c-4.693-1.87-12.473-4.195-20.997-6.518-29.054-7.919-55.453-23.519-76.493-45.064l-.34-.348c-6.76-6.92-15.89-15.61-2.9-38.56 14.64-25.88 17.97-30.8 17.97-38.94 0-21.987-3.554-30.449-16.746-38.638-12.927-8.025-53.244-32.492-65.194-50.792-10.88-16.66-18.46-55.11-29.7-65.96-16.41-15.83-57.52-13.88-66.69 0-9.83 14.89-12.73 52.15-23.76 71.88C11.38 102.753 0 120.713 0 135.233c0 32.608 14.355 43.406 38.26 126.466 2.135 7.419 10.371 39.77 15.097 56.657 3.339 11.933 12.024 21.675 23.519 26.302 14.24 5.733 38.826 8.025 59.635 8.025 57.42 0 168.06-25.84 175.46-3.33 4.9 14.89-46.06 32.5-79.97 29.73-42.42-3.45-55.42-12.94-102.49-15.24-50.376-2.461-54.417 6.12-51.899 15.727 1.808 6.897 9.376 10.324 12.857 11.972 40.13 18.991 182.378 26.997 239.821-18.916a9.836 9.836 0 0 0 3.635-6.5c3.869-32.355-12.806-64.618-26.664-70.154zM40.88 131.003c-3.64-6.74 9.57-16.66 34.84-16.66 29.44 0 46.86 10.38 44.83 16.66-2.97 9.23-75.17 8.34-79.67 0zm112.95 115.9c-3.4 10.54-85.91 9.53-91.05 0-4.15-7.7 10.94-19.04 39.82-19.04 33.64 0 53.55 11.86 51.23 19.04z"/></g></svg></g></svg>